<?xml version="1.0" encoding="UTF-8"?>
<svg width="99px" height="30px" viewBox="0 0 99 30" version="1.1" xmlns="http://www.w3.org/2000/svg" xmlns:xlink="http://www.w3.org/1999/xlink">
    <!-- Generator: Sketch 42 (36781) - http://www.bohemiancoding.com/sketch -->
    <title>Hypermedia_logo</title>
    <desc>Created with Sketch.</desc>
    <defs>
        <path d="M7.94769801,4.55976864 L7.94769801,9.46143959 L11.5534232,9.46143959 L11.5534232,12.8161954 L7.94769801,12.8161954 L7.94769801,24.0732648 C7.94769801,24.84362 8.10186796,25.3996341 8.4102125,25.7413239 C8.71855703,26.0830137 9.26916402,26.253856 10.06205,26.253856 C10.5906406,26.253856 11.125516,26.1917316 11.6666921,26.0674807 L11.6666921,29.5713368 C10.6220963,29.8571137 9.61527211,30 8.64618928,30 C5.12225172,30 3.36030937,28.0803534 3.36030937,24.2410026 L3.36030937,12.8161954 L5.68434189e-14,12.8161954 L5.68434189e-14,9.46143959 L3.36030937,9.46143959 L3.36030937,4.55976864 L7.94769801,4.55976864 Z M20.166236,11.6606684 C21.6639094,9.94600685 23.5579975,9.08868895 25.8485569,9.08868895 C30.2031368,9.08868895 32.4118574,11.5426061 32.4747849,16.4505141 L32.4747849,29.6272494 L27.8873963,29.6272494 L27.8873963,16.6182519 C27.8873963,15.2266426 27.5822027,14.2419695 26.9718063,13.6642031 C26.36141,13.0864367 25.4647072,12.7975578 24.281671,12.7975578 C22.4441893,12.7975578 21.0723913,13.6051762 20.166236,15.220437 L20.166236,29.6272494 L15.5788473,29.6272494 L15.5788473,1 L20.166236,1 L20.166236,11.6606684 Z M48.3934388,13.5989717 C47.7893352,13.4995711 47.1663627,13.4498715 46.5245027,13.4498715 C44.4227256,13.4498715 43.0068791,14.2450649 42.2769206,15.8354756 L42.2769206,29.6272494 L37.689532,29.6272494 L37.689532,9.46143959 L42.069261,9.46143959 L42.1825299,11.716581 C43.2900531,9.9646442 44.82546,9.08868895 46.7887967,9.08868895 C47.4432422,9.08868895 47.9844102,9.17566323 48.4123169,9.3496144 L48.3934388,13.5989717 Z M56.7608357,29.6272494 L52.173447,29.6272494 L52.173447,9.46143959 L56.7608357,9.46143959 L56.7608357,29.6272494 Z M69.5457179,23.8868895 L73.8688125,9.46143959 L78.6072263,9.46143959 L71.5279229,29.6272494 L67.5446348,29.6272494 L60.4086969,9.46143959 L65.1659888,9.46143959 L69.5457179,23.8868895 Z M90.8068861,30 C87.8996377,30 85.5430398,29.0960887 83.7370218,27.2882391 C81.9310038,25.4803894 81.0280083,23.0730656 81.0280083,20.0661954 L81.0280083,19.5070694 C81.0280083,17.4942059 81.421299,15.695702 82.2078922,14.1115039 C82.9944854,12.5273057 84.0988457,11.2941347 85.5210062,10.4119537 C86.9431667,9.5297728 88.5289149,9.08868895 90.2782982,9.08868895 C93.0596917,9.08868895 95.2086321,9.9646442 96.7251838,11.716581 C98.2417355,13.4685178 99,15.9472847 99,19.1529563 L99,20.9794344 L85.6531532,20.9794344 C85.7915936,22.6443956 86.3547859,23.9614347 87.342747,24.9305913 C88.3307081,25.8997478 89.5735067,26.3843188 91.0711801,26.3843188 C93.1729572,26.3843188 94.8845583,25.5456382 96.2060349,23.8682519 L98.6790716,26.1979434 C97.8610146,27.4031765 96.7692397,28.3381501 95.4037138,29.002892 C94.038188,29.667634 92.5059275,30 90.8068861,30 Z M90.25942,12.7230077 C89.0008709,12.7230077 87.9846077,13.1578791 87.2106,14.027635 C86.4365923,14.8973908 85.9426192,16.1088183 85.7286658,17.6619537 L94.4692458,17.6619537 L94.4692458,17.3264781 C94.3685619,15.810618 93.9595395,14.6644212 93.2421665,13.8878535 C92.5247935,13.1112857 91.5305546,12.7230077 90.25942,12.7230077 Z" id="path-1"></path>
        <filter x="-50%" y="-50%" width="200%" height="200%" filterUnits="objectBoundingBox" id="filter-2">
            <feGaussianBlur stdDeviation="1" in="SourceAlpha" result="shadowBlurInner1"></feGaussianBlur>
            <feOffset dx="0" dy="1" in="shadowBlurInner1" result="shadowOffsetInner1"></feOffset>
            <feComposite in="shadowOffsetInner1" in2="SourceAlpha" operator="arithmetic" k2="-1" k3="1" result="shadowInnerInner1"></feComposite>
            <feColorMatrix values="0 0 0 0 0   0 0 0 0 0   0 0 0 0 0  0 0 0 0.109686368 0" type="matrix" in="shadowInnerInner1"></feColorMatrix>
        </filter>
    </defs>
    <g id="Page-1" stroke="none" stroke-width="1" fill="none" fill-rule="evenodd">
        <g id="thrive">
            <use fill="#8D8D8D" fill-rule="evenodd" xlink:href="#path-1"></use>
            <use fill="black" fill-opacity="1" filter="url(#filter-2)" xlink:href="#path-1"></use>
        </g>
        <polygon id="Triangle" fill="#57BB2E" points="54.5 0 57 6 52 6"></polygon>
    </g>
</svg>